# xmcd
#
# Track frame offsets: 
#        150
#        24449
#        41529
#        67026
#        83522
#        106776
#        128932
#        159781
#        177491
#        199129
#        216025
#        232968
#        255586
#
# Disc length: 3712 seconds
#
# Revision: 2
# Processed by: cddbd v1.5.2PL0 Copyright (c) Steve Scherf et al.
# Submitted via: ExactAudioCopyFreeDBPlugin 1.0
#
DISCID=a20e7e0d
DTITLE=Various Artist - Music From Planet Earth - A Soundway Collecti
DTITLE=on
DYEAR=2014
DGENRE=Other
TTITLE0=Ibibio Sound Machine - Let's Dance
TTITLE1=Batida - Luxo
TTITLE2=Pinch - Are You Coming With Us?
TTITLE3=The Busy Twist - Floor Excitement VIP
TTITLE4=Fantasma - Sefty Belt
TTITLE5=Drumtalk - Airbourne
TTITLE6=Meridian Brothers - Guaracha U.F.O.
TTITLE7=Weird Together - Gran Gran Lewa
TTITLE8=Chico Mann - Same Old Clown
TTITLE9=Ondatropica - 3 Reyes de la Terapia
TTITLE10=Debruit and Alsarah - Alkoan Baladi
TTITLE11=Bomba Estereo - El Alma y el Cuerpo
TTITLE12=My Panda Shall Fly - Yapeyu
EXTD=
EXTT0=
EXTT1=
EXTT2=
EXTT3=
EXTT4=
EXTT5=
EXTT6=
EXTT7=
EXTT8=
EXTT9=
EXTT10=
EXTT11=
EXTT12=
PLAYORDER=
